<?xml version="1.0" standalone="no"?>
<!DOCTYPE svg PUBLIC "-//W3C//DTD SVG 20010904//EN"
 "http://www.w3.org/TR/2001/REC-SVG-20010904/DTD/svg10.dtd">
<svg version="1.0" xmlns="http://www.w3.org/2000/svg"
 width="500.000000pt" height="500.000000pt" viewBox="0 0 500.000000 500.000000"
 preserveAspectRatio="xMidYMid meet">

<g transform="translate(0.000000,500.000000) scale(0.100000,-0.100000)"
fill="#000000" stroke="none">
<path d="M534 2767 c-3 -8 -4 -41 -2 -73 3 -51 6 -59 23 -59 17 0 20 8 23 53
l3 52 50 0 c43 0 50 3 47 18 -3 14 -16 18 -71 20 -51 2 -69 -1 -73 -11z"/>
<path d="M1287 2766 c-8 -21 2 -26 54 -26 l48 0 3 -52 c2 -39 7 -53 18 -53 12
0 16 16 18 73 l3 72 -69 0 c-51 0 -71 -4 -75 -14z"/>
<path d="M1557 2763 c-4 -3 -7 -17 -7 -29 0 -29 16 -33 140 -37 l95 -2 0 -35
0 -35 -115 -5 -115 -5 0 -105 0 -105 33 -3 32 -3 0 74 0 75 94 4 c75 2 98 7
115 22 39 36 40 137 0 177 -17 17 -34 19 -142 19 -68 0 -127 -3 -130 -7z"/>
<path d="M2096 2748 c-16 -26 -136 -323 -136 -338 0 -6 15 -10 34 -10 30 0 36
4 46 35 11 34 13 35 65 35 61 0 70 8 54 44 -8 18 -21 26 -44 28 l-32 3 26 68
c14 37 28 67 32 67 3 0 30 -62 60 -137 53 -135 56 -138 87 -141 23 -2 32 1 32
11 0 19 -126 325 -141 343 -18 22 -67 17 -83 -8z"/>
<path d="M2420 2765 c0 -3 32 -61 70 -129 64 -113 70 -129 70 -180 0 -56 0
-56 30 -56 30 0 30 1 30 53 0 48 8 67 70 178 39 68 70 127 70 131 0 5 -15 8
-32 8 -31 0 -36 -5 -82 -90 -27 -50 -52 -90 -55 -90 -3 0 -28 41 -54 90 -46
87 -49 90 -82 90 -19 0 -35 -2 -35 -5z"/>
<path d="M2880 2750 c-16 -16 -20 -33 -20 -88 0 -94 14 -106 118 -104 42 1 83
-2 90 -7 8 -5 12 -22 10 -42 l-3 -34 -105 -5 -105 -5 -3 -32 -3 -33 120 0
c152 0 161 6 161 108 0 99 -8 106 -122 112 l-93 5 -3 37 -3 37 103 3 103 3 3
33 3 32 -115 0 c-103 0 -118 -2 -136 -20z"/>
<path d="M3292 2760 c-36 -15 -52 -68 -52 -175 0 -111 16 -160 55 -175 35 -13
222 -13 230 1 4 5 4 21 1 35 -6 23 -9 24 -107 24 -117 0 -114 -3 -114 115 0
118 -3 115 114 115 98 0 101 1 107 24 3 14 3 30 -1 35 -8 13 -200 14 -233 1z"/>
<path d="M3756 2742 c-15 -30 -136 -329 -136 -337 0 -3 16 -5 35 -5 30 0 37 4
49 35 14 33 17 35 66 35 56 0 69 14 50 49 -7 14 -21 21 -41 21 -21 0 -30 4
-26 13 2 6 15 40 27 75 13 34 24 61 25 60 2 -2 29 -67 60 -145 l57 -143 34 0
c19 0 34 2 34 5 0 8 -121 307 -136 337 -12 22 -21 28 -49 28 -28 0 -37 -6 -49
-28z"/>
<path d="M4097 2763 c-4 -3 -7 -87 -7 -185 l0 -178 30 0 29 0 3 143 3 142 80
-140 80 -140 42 -3 c60 -4 64 8 61 200 l-3 163 -30 0 -30 0 -5 -138 -5 -137
-65 116 c-87 157 -93 164 -139 164 -21 0 -41 -3 -44 -7z"/>
<path d="M890 2746 c-182 -39 -279 -197 -242 -394 7 -37 6 -63 -1 -82 -10 -26
-16 -29 -62 -32 -36 -2 -50 -7 -50 -18 0 -13 58 -15 448 -18 442 -2 447 -2
447 18 0 17 -7 20 -48 20 -64 0 -75 20 -61 114 16 120 -14 239 -80 309 -36 39
-105 73 -176 86 -71 13 -104 13 -175 -3z m219 -51 c72 -22 134 -83 155 -154
18 -60 22 -206 6 -216 -6 -4 -10 10 -10 33 0 68 -21 83 -131 94 -52 5 -110 14
-130 19 -46 12 -87 52 -95 94 -11 59 -45 52 -58 -11 -8 -37 -25 -54 -82 -82
-47 -24 -54 -36 -54 -98 0 -66 -17 -53 -24 19 -17 154 53 265 194 308 44 13
175 10 229 -6z m-193 -224 c43 -43 103 -61 199 -61 29 0 65 -4 79 -10 23 -8
26 -15 26 -58 0 -44 2 -49 30 -59 17 -6 30 -18 30 -27 0 -13 -12 -16 -59 -16
-55 0 -61 2 -73 27 -7 14 -21 31 -30 37 -23 14 -48 -1 -66 -37 -12 -25 -18
-27 -71 -27 -54 0 -59 2 -65 25 -14 54 -88 54 -102 0 -6 -23 -10 -25 -65 -25
-68 0 -80 19 -29 45 28 15 30 19 30 75 l0 59 44 19 c24 11 52 31 62 46 11 14
20 26 20 26 1 0 19 -17 40 -39z"/>
<path d="M723 2143 c-15 -38 90 -184 157 -218 121 -63 264 0 341 149 28 54 32
67 20 78 -11 11 -15 10 -25 -6 -89 -147 -135 -190 -210 -201 -82 -13 -172 50
-227 158 -30 59 -45 69 -56 40z"/>
<path d="M536 2015 c-3 -9 -6 -43 -6 -76 l0 -60 72 3 c60 2 73 6 76 21 3 14
-4 17 -47 17 l-50 0 -3 52 c-2 39 -7 54 -19 56 -9 2 -19 -4 -23 -13z"/>
<path d="M1397 2024 c-4 -4 -7 -29 -7 -55 l0 -48 -52 -3 c-39 -2 -53 -7 -53
-18 0 -12 16 -16 73 -18 l73 -3 -3 72 c-3 66 -13 90 -31 73z"/>
</g>
</svg>
