<?xml version="1.0" standalone="no"?>
<!DOCTYPE svg PUBLIC "-//W3C//DTD SVG 20010904//EN"
 "http://www.w3.org/TR/2001/REC-SVG-20010904/DTD/svg10.dtd">
<svg version="1.0" xmlns="http://www.w3.org/2000/svg"
 width="500.000000pt" height="500.000000pt" viewBox="0 0 500.000000 500.000000"
 preserveAspectRatio="xMidYMid meet">

<g transform="translate(0.000000,500.000000) scale(0.100000,-0.100000)"
fill="#000000" stroke="none">
<path d="M534 2767 c-3 -8 -4 -41 -2 -73 3 -51 6 -59 23 -59 17 0 20 8 23 53
l3 52 50 0 c43 0 50 3 47 18 -3 14 -16 18 -71 20 -51 2 -69 -1 -73 -11z"/>
<path d="M1287 2766 c-8 -21 2 -26 54 -26 l48 0 3 -52 c2 -39 7 -53 18 -53 12
0 16 16 18 73 l3 72 -69 0 c-51 0 -71 -4 -75 -14z"/>
<path d="M1556 2755 c-14 -37 3 -45 98 -45 128 0 138 -4 134 -49 l-3 -36 -110
-3 c-72 -2 -112 -7 -117 -15 -10 -15 -8 -180 2 -197 4 -6 18 -10 31 -8 22 3
24 8 27 76 l3 72 67 1 c144 2 167 17 167 110 0 54 -3 63 -28 85 -26 22 -36 24
-146 24 -96 0 -120 -3 -125 -15z"/>
<path d="M2102 2757 c-13 -15 -142 -331 -142 -346 0 -6 14 -11 30 -11 25 0 33
6 47 35 15 31 21 35 57 35 54 0 70 11 62 43 -5 20 -13 26 -40 29 l-34 3 26 68
c14 37 29 67 32 67 4 0 31 -62 61 -137 54 -134 56 -138 87 -141 18 -2 32 1 32
7 0 16 -119 312 -136 339 -16 25 -65 30 -82 9z"/>
<path d="M2420 2766 c0 -2 32 -60 70 -129 63 -113 70 -131 70 -181 0 -56 0
-56 30 -56 30 0 30 1 30 54 0 48 7 67 65 169 86 153 85 149 44 145 -31 -3 -38
-10 -81 -88 -26 -47 -51 -86 -55 -87 -5 -2 -30 38 -56 87 -46 87 -50 90 -83
90 -19 0 -34 -2 -34 -4z"/>
<path d="M2894 2762 c-37 -24 -48 -143 -16 -181 15 -18 30 -21 107 -23 l90 -3
3 -42 c3 -36 0 -43 -15 -44 -10 0 -58 -1 -108 -2 l-90 -2 -3 -32 -3 -33 120 0
c111 0 122 2 141 22 16 17 20 35 20 88 0 97 -8 104 -122 110 l-93 5 -3 34 c-2
20 2 37 10 42 7 5 55 9 106 9 l92 0 0 30 0 30 -112 0 c-62 0 -118 -4 -124 -8z"/>
<path d="M3289 2755 c-37 -20 -49 -62 -49 -170 0 -165 20 -185 180 -185 l100
0 0 29 c0 36 -10 40 -114 39 -45 0 -83 5 -90 12 -16 16 -15 195 2 212 8 8 47
14 107 16 l95 4 0 29 0 29 -102 0 c-70 -1 -112 -5 -129 -15z"/>
<path d="M3772 2762 c-15 -10 -152 -348 -144 -356 3 -3 18 -6 32 -6 21 0 31 7
40 30 15 37 35 48 75 44 45 -6 62 9 47 40 -9 20 -19 26 -42 26 -16 0 -30 4
-30 8 0 8 49 134 55 140 1 2 29 -62 61 -142 l58 -146 33 0 c18 0 33 3 33 8 0
4 -33 86 -73 182 -69 169 -73 175 -102 178 -16 1 -36 -1 -43 -6z"/>
<path d="M4102 2758 c-8 -8 -12 -64 -12 -185 l0 -173 30 0 30 0 0 142 c0 78 3
138 8 134 4 -4 41 -66 82 -139 l75 -132 43 -3 c38 -3 43 0 52 24 6 15 9 93 8
183 l-3 156 -30 0 -30 0 -5 -138 -5 -139 -69 124 c-38 68 -76 131 -84 141 -17
20 -72 23 -90 5z"/>
<path d="M890 2746 c-182 -39 -279 -197 -242 -394 7 -37 6 -63 -1 -82 -10 -26
-16 -29 -62 -32 -36 -2 -50 -7 -50 -18 0 -13 58 -15 448 -18 442 -2 447 -2
447 18 0 17 -7 20 -48 20 -64 0 -75 20 -61 114 16 120 -14 239 -80 309 -36 39
-105 73 -176 86 -71 13 -104 13 -175 -3z m219 -51 c72 -22 134 -83 155 -154
18 -60 22 -206 6 -216 -6 -4 -10 10 -10 33 0 68 -21 83 -131 94 -52 5 -110 14
-130 19 -46 12 -87 52 -95 94 -11 59 -45 52 -58 -11 -8 -37 -25 -54 -82 -82
-47 -24 -54 -36 -54 -98 0 -66 -17 -53 -24 19 -17 154 53 265 194 308 44 13
175 10 229 -6z m-193 -224 c43 -43 103 -61 199 -61 29 0 65 -4 79 -10 23 -8
26 -15 26 -58 0 -44 2 -49 30 -59 17 -6 30 -18 30 -27 0 -13 -12 -16 -59 -16
-55 0 -61 2 -73 27 -7 14 -21 31 -30 37 -23 14 -48 -1 -66 -37 -12 -25 -18
-27 -71 -27 -54 0 -59 2 -65 25 -14 54 -88 54 -102 0 -6 -23 -10 -25 -65 -25
-68 0 -80 19 -29 45 28 15 30 19 30 75 l0 59 44 19 c24 11 52 31 62 46 11 14
20 26 20 26 1 0 19 -17 40 -39z"/>
<path d="M723 2143 c-15 -38 90 -184 157 -218 121 -63 264 0 341 149 28 54 32
67 20 78 -11 11 -15 10 -25 -6 -89 -147 -135 -190 -210 -201 -82 -13 -172 50
-227 158 -30 59 -45 69 -56 40z"/>
<path d="M536 2015 c-3 -9 -6 -43 -6 -76 l0 -60 72 3 c60 2 73 6 76 21 3 14
-4 17 -47 17 l-50 0 -3 52 c-2 39 -7 54 -19 56 -9 2 -19 -4 -23 -13z"/>
<path d="M1397 2024 c-4 -4 -7 -29 -7 -55 l0 -48 -52 -3 c-39 -2 -53 -7 -53
-18 0 -12 16 -16 73 -18 l73 -3 -3 72 c-3 66 -13 90 -31 73z"/>
</g>
</svg>
